<svg width="192" height="78" viewBox="0 0 192 78" fill="none" xmlns="http://www.w3.org/2000/svg">
<path d="M44.5706 19.6303L47.6016 72.2368C47.7193 74.2792 46.0948 76 44.049 76C42.0837 76 40.4904 74.4068 40.4904 72.4415V68.5026C40.4904 62.1528 35.3429 57.0052 28.993 57.0052H21.7902C15.4403 57.0052 10.2928 62.1528 10.2928 68.5026V72.127C10.2928 74.266 8.55876 76 6.41976 76C4.14504 76 2.36011 74.0489 2.56206 71.7832L7.26278 19.0455C8.12287 9.39618 16.2076 2 25.8953 2C35.8085 2 44.0004 9.7335 44.5706 19.6303Z" stroke="white" stroke-width="4"/>
<rect x="9.41614" y="13.3161" width="27.0342" height="13.3782" rx="6.68912" stroke="white" stroke-width="4"/>
<rect x="2.11304" y="1.87949" width="7.47611" height="31.1603" rx="3.73806" transform="matrix(0.998284 -0.0585562 0.0582378 0.998303 44.3901 21.0062)" stroke="white" stroke-width="4"/>
<path d="M78.752 27.672V41.568C78.752 41.936 78.432 42.12 77.792 42.12C77.152 42.12 76.832 41.936 76.832 41.568V35.064H69.56V41.568C69.56 41.936 69.24 42.12 68.6 42.12C67.96 42.12 67.64 41.936 67.64 41.568V27.672C67.64 26.776 67.904 26.04 68.432 25.464C68.96 24.872 69.632 24.464 70.448 24.24C71.264 24 72.224 23.88 73.328 23.88C76.944 23.88 78.752 25.144 78.752 27.672ZM69.56 27.432V33.384H76.832V27.432C76.832 26.184 75.616 25.56 73.184 25.56C70.768 25.56 69.56 26.184 69.56 27.432ZM84.0228 41.568V31.032C84.0228 29.72 84.4788 28.76 85.3908 28.152C86.3188 27.544 87.5988 27.24 89.2308 27.24C90.8628 27.24 92.1108 27.664 92.9748 28.512C93.8228 27.664 95.0628 27.24 96.6948 27.24C100.183 27.24 101.927 28.504 101.927 31.032V41.568C101.927 41.936 101.607 42.12 100.967 42.12C100.327 42.12 100.007 41.936 100.007 41.568V30.792C100.007 29.544 98.9908 28.92 96.9588 28.92C94.9428 28.92 93.9348 29.56 93.9348 30.84V41.568C93.9348 41.936 93.6148 42.12 92.9748 42.12C92.3348 42.12 92.0148 41.936 92.0148 41.568V30.792C92.0148 29.544 90.9988 28.92 88.9668 28.92C86.9508 28.92 85.9428 29.544 85.9428 30.792V41.568C85.9428 41.936 85.6228 42.12 84.9828 42.12C84.3428 42.12 84.0228 41.936 84.0228 41.568ZM115.435 38.808V30.792C115.435 29.544 114.339 28.92 112.147 28.92C109.971 28.92 108.883 29.544 108.883 30.792V38.808C108.883 40.056 109.971 40.68 112.147 40.68C114.339 40.68 115.435 40.056 115.435 38.808ZM117.355 31.032V38.568C117.355 39.896 116.883 40.864 115.939 41.472C114.995 42.064 113.739 42.36 112.171 42.36C110.603 42.36 109.339 42.064 108.379 41.472C107.435 40.864 106.963 39.896 106.963 38.568V31.032C106.963 29.704 107.435 28.744 108.379 28.152C109.323 27.544 110.579 27.24 112.147 27.24C113.715 27.24 114.971 27.544 115.915 28.152C116.875 28.744 117.355 29.704 117.355 31.032ZM132.782 31.032V41.568C132.782 41.936 132.462 42.12 131.822 42.12C131.182 42.12 130.862 41.936 130.862 41.568V30.792C130.862 29.544 129.766 28.92 127.574 28.92C125.398 28.92 124.31 29.544 124.31 30.792V41.568C124.31 41.936 123.99 42.12 123.35 42.12C122.71 42.12 122.39 41.936 122.39 41.568V31.032C122.39 29.704 122.862 28.744 123.806 28.152C124.75 27.544 126.006 27.24 127.574 27.24C129.142 27.24 130.398 27.544 131.342 28.152C132.302 28.744 132.782 29.704 132.782 31.032ZM148.222 31.392V39.12C148.222 39.488 147.902 39.672 147.262 39.672C146.622 39.672 146.302 39.488 146.302 39.12V31.152C146.302 29.968 145.302 29.344 143.302 29.28H143.038C140.846 29.28 139.75 29.904 139.75 31.152V37.776C139.75 38.704 139.886 39.36 140.158 39.744C140.446 40.128 140.934 40.32 141.622 40.32H143.518C145.038 40.32 146.198 40.616 146.998 41.208C147.814 41.8 148.222 42.768 148.222 44.112V44.208C148.222 45.552 147.814 46.52 146.998 47.112C146.198 47.704 145.038 48 143.518 48H138.07C137.75 48 137.59 47.72 137.59 47.16C137.59 46.6 137.75 46.32 138.07 46.32H143.518C144.462 46.32 145.158 46.176 145.606 45.888C146.07 45.6 146.302 45.12 146.302 44.448V43.872C146.302 43.2 146.07 42.72 145.606 42.432C145.158 42.144 144.462 42 143.518 42H141.622C140.246 42 139.27 41.672 138.694 41.016C138.118 40.344 137.83 39.264 137.83 37.776V31.392C137.83 30.064 138.302 29.104 139.246 28.512C140.206 27.904 141.47 27.6 143.038 27.6H146.398C147.438 27.6 148.262 27.424 148.87 27.072C149.062 26.944 149.182 26.88 149.23 26.88C149.422 26.88 149.622 27.032 149.83 27.336C150.054 27.64 150.166 27.896 150.166 28.104C150.166 28.392 149.926 28.64 149.446 28.848C148.982 29.056 148.358 29.192 147.574 29.256C148.006 29.848 148.222 30.56 148.222 31.392ZM164.294 38.808C164.294 40.056 165.502 40.68 167.918 40.68C170.35 40.68 171.566 40.056 171.566 38.808V24.672C171.566 24.304 171.886 24.12 172.526 24.12C173.166 24.12 173.486 24.304 173.486 24.672V38.568C173.486 39.896 172.966 40.864 171.926 41.472C170.902 42.064 169.542 42.36 167.846 42.36C164.198 42.36 162.374 41.096 162.374 38.568V24.672C162.374 24.304 162.686 24.12 163.31 24.12C163.95 24.12 164.27 24.304 164.27 24.672L164.294 38.808ZM186.797 31.752V30.816C186.797 29.552 185.765 28.92 183.701 28.92C182.821 28.92 182.101 29.064 181.541 29.352C180.981 29.64 180.701 30.096 180.701 30.72V31.248C180.701 32.112 180.813 32.68 181.037 32.952C181.261 33.208 181.741 33.424 182.477 33.6L184.565 34.128C186.549 34.64 187.725 35.136 188.093 35.616C188.541 36.208 188.765 36.992 188.765 37.968V38.832C188.765 40.08 188.277 40.984 187.301 41.544C186.341 42.088 185.093 42.36 183.557 42.36C181.061 42.36 179.477 41.728 178.805 40.464C178.533 39.936 178.397 39.296 178.397 38.544V37.776C178.397 37.568 178.469 37.432 178.613 37.368C178.757 37.288 179.005 37.248 179.357 37.248C179.981 37.248 180.293 37.448 180.293 37.848V38.928C180.293 39.568 180.573 40.024 181.133 40.296C181.693 40.552 182.509 40.68 183.581 40.68C185.773 40.68 186.869 40.12 186.869 39V37.728C186.869 37.232 186.677 36.848 186.293 36.576C185.925 36.304 185.285 36.048 184.373 35.808L182.261 35.28C180.837 34.928 179.901 34.512 179.453 34.032C179.021 33.536 178.805 32.584 178.805 31.176V30.888C178.837 29.608 179.293 28.68 180.173 28.104C181.053 27.528 182.213 27.24 183.653 27.24C187.013 27.24 188.693 28.488 188.693 30.984V31.824C188.693 32.16 188.373 32.328 187.733 32.328C187.109 32.328 186.797 32.136 186.797 31.752ZM75.08 63.696H69.56V71.568C69.56 71.936 69.24 72.12 68.6 72.12C67.96 72.12 67.64 71.936 67.64 71.568V58.464C67.64 56.976 67.928 55.904 68.504 55.248C69.08 54.576 70.056 54.24 71.432 54.24H76.04C76.36 54.24 76.52 54.52 76.52 55.08C76.52 55.64 76.36 55.92 76.04 55.92H71.432C70.744 55.92 70.256 56.112 69.968 56.496C69.696 56.88 69.56 57.536 69.56 58.464V62.016H75.08C75.4 62.016 75.56 62.296 75.56 62.856C75.56 63.416 75.4 63.696 75.08 63.696ZM85.4776 72H82.6696C81.2616 72 80.2456 71.712 79.6216 71.136C78.9976 70.56 78.6856 69.584 78.6856 68.208V68.016C78.6856 66.656 78.9656 65.72 79.5256 65.208C80.0856 64.696 81.0856 64.368 82.5256 64.224L86.6776 63.816V61.152C86.6776 59.904 85.5896 59.28 83.4136 59.28H80.1256C79.8056 59.28 79.6456 59 79.6456 58.44C79.6456 57.88 79.8056 57.6 80.1256 57.6H83.4136C84.9816 57.6 86.2376 57.904 87.1816 58.512C88.1256 59.104 88.5976 60.064 88.5976 61.392V68.472C88.5976 69.512 88.7816 70.336 89.1496 70.944C89.2616 71.136 89.3176 71.256 89.3176 71.304C89.3176 71.496 89.1656 71.704 88.8616 71.928C88.5576 72.136 88.3016 72.24 88.0936 72.24C87.7416 72.24 87.4136 71.912 87.1096 71.256C86.8216 70.584 86.6776 69.736 86.6776 68.712V65.496L82.6696 65.904C81.8056 66 81.2456 66.192 80.9896 66.48C80.7336 66.768 80.6056 67.28 80.6056 68.016V68.208C80.6056 68.976 80.7336 69.52 80.9896 69.84C81.2616 70.16 81.8216 70.32 82.6696 70.32H85.4776C85.7976 70.32 85.9576 70.6 85.9576 71.16C85.9576 71.72 85.7976 72 85.4776 72ZM104.259 61.032V71.568C104.259 71.936 103.939 72.12 103.299 72.12C102.659 72.12 102.339 71.936 102.339 71.568V60.792C102.339 59.544 101.243 58.92 99.0506 58.92C96.8746 58.92 95.7866 59.544 95.7866 60.792V71.568C95.7866 71.936 95.4666 72.12 94.8266 72.12C94.1866 72.12 93.8666 71.936 93.8666 71.568V61.032C93.8666 59.704 94.3386 58.744 95.2826 58.152C96.2266 57.544 97.4826 57.24 99.0506 57.24C100.619 57.24 101.875 57.544 102.819 58.152C103.779 58.744 104.259 59.704 104.259 61.032ZM117.586 61.752V60.816C117.586 59.552 116.554 58.92 114.49 58.92C113.61 58.92 112.89 59.064 112.33 59.352C111.77 59.64 111.49 60.096 111.49 60.72V61.248C111.49 62.112 111.602 62.68 111.826 62.952C112.05 63.208 112.53 63.424 113.266 63.6L115.354 64.128C117.338 64.64 118.514 65.136 118.882 65.616C119.33 66.208 119.554 66.992 119.554 67.968V68.832C119.554 70.08 119.066 70.984 118.09 71.544C117.13 72.088 115.882 72.36 114.346 72.36C111.85 72.36 110.266 71.728 109.594 70.464C109.322 69.936 109.186 69.296 109.186 68.544V67.776C109.186 67.568 109.258 67.432 109.402 67.368C109.546 67.288 109.794 67.248 110.146 67.248C110.77 67.248 111.082 67.448 111.082 67.848V68.928C111.082 69.568 111.362 70.024 111.922 70.296C112.482 70.552 113.298 70.68 114.37 70.68C116.562 70.68 117.658 70.12 117.658 69V67.728C117.658 67.232 117.466 66.848 117.082 66.576C116.714 66.304 116.074 66.048 115.162 65.808L113.05 65.28C111.626 64.928 110.69 64.512 110.242 64.032C109.81 63.536 109.594 62.584 109.594 61.176V60.888C109.626 59.608 110.082 58.68 110.962 58.104C111.842 57.528 113.002 57.24 114.442 57.24C117.802 57.24 119.482 58.488 119.482 60.984V61.824C119.482 62.16 119.162 62.328 118.522 62.328C117.898 62.328 117.586 62.136 117.586 61.752ZM126.63 58.032V69.192C126.63 69.704 126.75 70.184 126.99 70.632C127.23 71.064 127.35 71.288 127.35 71.304C127.35 71.496 127.198 71.704 126.894 71.928C126.59 72.136 126.334 72.24 126.126 72.24C125.79 72.24 125.47 71.952 125.166 71.376C124.862 70.784 124.71 70.136 124.71 69.432V58.032C124.71 57.664 125.03 57.48 125.67 57.48C126.31 57.48 126.63 57.664 126.63 58.032ZM126.702 52.92V55.008C126.702 55.408 126.35 55.608 125.646 55.608C124.958 55.608 124.614 55.408 124.614 55.008V52.92C124.614 52.52 124.958 52.32 125.646 52.32C126.35 52.32 126.702 52.52 126.702 52.92ZM134.786 54.792V57.6H137.306C137.626 57.6 137.786 57.88 137.786 58.44C137.786 59 137.626 59.28 137.306 59.28H134.786V69.192C134.786 69.704 134.906 70.184 135.146 70.632C135.386 71.064 135.506 71.288 135.506 71.304C135.506 71.496 135.354 71.704 135.05 71.928C134.746 72.136 134.49 72.24 134.282 72.24C133.946 72.24 133.626 71.952 133.322 71.376C133.018 70.784 132.866 70.136 132.866 69.432V59.28H130.946C130.626 59.28 130.466 59 130.466 58.44C130.466 57.88 130.626 57.6 130.946 57.6H132.866V54.792C132.866 54.424 133.186 54.24 133.826 54.24C134.466 54.24 134.786 54.424 134.786 54.792ZM151.412 60.984V61.704C151.412 63.064 151.132 64 150.572 64.512C150.012 65.024 148.988 65.352 147.5 65.496L142.82 65.952V68.808C142.82 70.056 143.86 70.68 145.94 70.68C148.308 70.68 149.492 70.136 149.492 69.048V68.136C149.492 67.768 149.812 67.584 150.452 67.584C151.092 67.584 151.412 67.768 151.412 68.136V68.808C151.412 71.176 149.652 72.36 146.132 72.36C144.58 72.36 143.316 72.056 142.34 71.448C141.38 70.84 140.9 69.88 140.9 68.568V61.032C140.9 59.704 141.412 58.744 142.436 58.152C143.46 57.544 144.796 57.24 146.444 57.24C148.092 57.24 149.332 57.528 150.164 58.104C150.996 58.68 151.412 59.64 151.412 60.984ZM142.82 60.792V64.272L147.332 63.816C148.244 63.72 148.828 63.528 149.084 63.24C149.356 62.952 149.492 62.44 149.492 61.704V60.792C149.492 59.544 148.38 58.92 146.156 58.92C143.932 58.92 142.82 59.544 142.82 60.792ZM157.237 69.744V71.784C157.237 72.168 156.893 72.36 156.205 72.36C155.533 72.36 155.197 72.168 155.197 71.784V69.744C155.197 69.36 155.533 69.168 156.205 69.168C156.893 69.168 157.237 69.36 157.237 69.744Z" fill="white"/>
</svg>
